<svg width="40" height="40" viewBox="0 0 40 40" fill="none" xmlns="http://www.w3.org/2000/svg">
<path fill-rule="evenodd" clip-rule="evenodd" d="M9.72729 8.33331C10.4177 8.33331 10.9773 8.89296 10.9773 9.58331L10.9773 29.5833C10.9773 30.2737 10.4177 30.8333 9.72729 30.8333C9.03694 30.8333 8.47729 30.2737 8.47729 29.5833L8.47729 9.58331C8.47729 8.89296 9.03694 8.33331 9.72729 8.33331Z" fill="white"/>
<path fill-rule="evenodd" clip-rule="evenodd" d="M1.69912 21.5552C2.18728 21.067 2.97874 21.067 3.46689 21.5552L9.72729 27.8156L15.9877 21.5552C16.4759 21.067 17.2673 21.067 17.7555 21.5552C18.2436 22.0434 18.2436 22.8348 17.7555 23.323L10.6112 30.4673C10.123 30.9554 9.33157 30.9554 8.84341 30.4673L1.69912 23.323C1.21097 22.8348 1.21097 22.0434 1.69912 21.5552Z" fill="white"/>
<path fill-rule="evenodd" clip-rule="evenodd" d="M29.7275 30.9553C29.0372 30.9553 28.4775 30.3956 28.4775 29.7053L28.4775 9.70526C28.4775 9.0149 29.0372 8.45526 29.7275 8.45526C30.4179 8.45526 30.9775 9.0149 30.9775 9.70526L30.9775 29.7053C30.9775 30.3956 30.4179 30.9553 29.7275 30.9553Z" fill="white"/>
<path fill-rule="evenodd" clip-rule="evenodd" d="M37.7557 17.7334C37.2676 18.2215 36.4761 18.2215 35.9879 17.7334L29.7275 11.473L23.4671 17.7334C22.979 18.2215 22.1875 18.2215 21.6994 17.7334C21.2112 17.2452 21.2112 16.4538 21.6994 15.9656L28.8437 8.82132C29.3318 8.33316 30.1233 8.33316 30.6114 8.82132L37.7557 15.9656C38.2439 16.4538 38.2439 17.2452 37.7557 17.7334Z" fill="white"/>
</svg>
